<svg display="block" role="presentation" viewBox="0 0 1086 211" xmlns="http://www.w3.org/2000/svg"><path d="M 105.639 140.524 C 102.408 140.524 99.528 138.54 98.36 135.567 L 89.758 113.144 L 109.96 113.144 L 109.96 82.827 L 73.216 82.827 L 73.216 60.786 L 109.96 60.786 L 109.96 30.469 L 73.216 30.469 L 73.216 0 L 42.271 0 L 42.271 30.469 L 5.527 30.469 L 5.527 60.786 L 42.271 60.786 L 42.271 82.827 L 5.527 82.827 L 5.527 113.144 L 25.729 113.144 L 17.126 135.604 C 15.959 138.579 13.078 140.562 9.848 140.562 L 0 140.562 L 0 170.879 L 5.878 170.879 C 20.124 170.879 32.813 162.031 37.445 148.799 L 42.31 134.994 L 42.31 205.962 L 73.255 205.962 L 73.255 134.956 L 78.12 148.761 C 82.752 161.955 95.441 170.841 109.688 170.841 L 115.564 170.841 L 115.564 140.524 Z" fill="rgb(135,150,161)" transform="translate(57.802 2.198)"/><path d="M 57.763 126.071 L 57.763 95.754 L 48.11 99.11 L 48.11 73.713 L 57.763 73.713 L 57.763 43.396 L 48.11 43.396 L 48.11 0 L 17.165 0 L 17.165 43.396 L 0 43.396 L 0 73.713 L 17.165 73.713 L 17.165 109.902 L 0 115.889 L 0 146.206 L 17.165 140.219 L 17.165 168.018 C 17.165 172.213 13.662 175.645 9.381 175.645 L 0 175.645 L 0 205.962 L 17.165 205.962 C 34.253 205.962 48.11 192.386 48.11 175.645 L 48.11 129.427 Z" fill="rgb(135,150,161)" transform="translate(0 2.198)"/><path d="M 30.712 60.786 L 61.695 60.786 L 61.695 45.646 L 89.019 45.646 L 89.019 60.786 L 119.964 60.786 L 119.964 45.646 L 150.674 45.646 L 150.674 15.292 L 119.964 15.292 L 119.964 0 L 89.019 0 L 89.019 15.292 L 61.695 15.292 L 61.695 0 L 30.712 0 L 30.712 15.292 L 0 15.292 L 0 45.646 L 30.712 45.646 Z" fill="rgb(135,150,161)" transform="translate(190.103 2.16)"/><path d="M 162.078 32.223 C 156.356 32.223 150.752 30.583 145.964 27.495 L 103.343 0 L 69.168 0 L 26.545 27.495 C 21.758 30.583 16.153 32.223 10.431 32.223 L 0 32.223 L 0 62.578 L 5.644 62.578 C 17.983 62.578 30.01 58.764 40.052 51.748 L 86.255 19.334 L 132.457 51.748 C 142.461 58.764 154.488 62.578 166.866 62.578 L 172.471 62.578 L 172.471 32.223 Z" fill="rgb(135,150,161)" transform="translate(178.777 65.691)"/><path d="M 81.624 43.358 L 81.624 13.042 L 56.323 13.042 L 56.323 0 L 25.34 0 L 25.34 13.042 L 0 13.042 L 0 43.358 L 25.34 43.358 L 25.34 103.076 L 56.323 103.076 L 56.323 43.358 Z" fill="rgb(135,150,161)" transform="translate(224.2 105.084)"/><path d="M 17.166 6.597 C 17.166 10.792 13.702 14.224 9.381 14.224 L 0 14.224 L 0 44.54 L 17.166 44.54 C 34.253 44.54 48.11 30.965 48.11 14.224 L 48.11 0 L 17.166 0 Z" fill="rgb(135,150,161)" transform="translate(190.103 158.7)"/><path d="M 30.945 6.597 L 30.945 0 L 0 0 L 0 14.224 C 0 30.965 13.857 44.54 30.945 44.54 L 48.109 44.54 L 48.109 14.224 L 38.729 14.224 C 34.408 14.224 30.945 10.792 30.945 6.597 Z" fill="rgb(135,150,161)" transform="translate(292.24 158.7)"/><path d="M 141.566 19.182 L 86.294 19.182 L 89.524 0 L 58.347 0 L 54.96 19.182 L 0 19.182 L 0 49.536 L 49.627 49.536 L 34.446 135.719 C 33.474 141.21 28.608 145.214 22.926 145.214 L 0 145.214 L 0 175.531 L 33.591 175.531 C 48.732 175.531 61.655 164.815 64.107 150.172 L 81.155 49.536 L 133.781 49.536 C 138.062 49.536 141.566 52.968 141.566 57.163 L 141.566 137.587 C 141.566 141.782 138.062 145.214 133.781 145.214 L 97.387 145.214 L 97.387 175.531 L 141.566 175.531 C 158.652 175.531 172.509 161.955 172.509 145.214 L 172.509 49.536 C 172.509 32.757 158.652 19.182 141.566 19.182 Z" fill="rgb(135,150,161)" transform="translate(363.354 32.629)"/><path d="M 29.115 137.664 C 29.115 141.858 25.612 145.29 21.33 145.29 L 0 145.29 L 0 175.607 L 29.115 175.607 C 46.202 175.607 60.059 162.031 60.059 145.29 L 60.059 0 L 29.115 0 Z" fill="rgb(135,150,161)" transform="translate(548.864 32.553)"/><path d="M 37.133 136.482 C 34.098 137.511 30.945 135.3 30.945 132.134 L 30.945 0 L 0 0 L 0 154.099 C 0 162.451 4.866 169.697 11.95 173.243 C 16.543 175.57 22.032 175.531 26.819 173.548 L 100.229 146.625 L 100.229 115.241 L 37.133 136.444 Z" fill="rgb(135,150,161)" transform="translate(621.962 32.515)"/><path d="M 29.116 137.664 C 29.116 141.858 25.613 145.29 21.331 145.29 L 0 145.29 L 0 175.607 L 29.116 175.607 C 46.203 175.607 60.06 162.031 60.06 145.29 L 60.06 0 L 29.116 0 Z" fill="rgb(135,150,161)" transform="translate(911.711 32.553)"/><path d="M 37.133 136.482 C 34.097 137.511 30.945 135.3 30.945 132.134 L 30.945 0 L 0 0 L 0 154.099 C 0 162.451 4.865 169.696 11.949 173.243 C 16.543 175.569 22.031 175.532 26.819 173.548 L 100.229 146.625 L 100.229 115.241 L 37.133 136.444 Z" fill="rgb(135,150,161)" transform="translate(984.771 32.553)"/><path d="M 172.471 0 L 0 0 L 0 30.317 L 172.471 30.317 Z" fill="rgb(135,150,161)" transform="translate(730.716 32.629)"/><path d="M 71.386 30.316 L 61.461 86.526 C 60.488 92.017 55.623 96.021 49.939 96.021 L 0 96.021 L 0 126.338 L 60.605 126.338 C 75.746 126.338 88.668 115.622 91.121 100.979 L 103.07 30.316 L 172.472 30.316 L 172.472 0 L 0 0 L 0 30.316 Z" fill="rgb(135,150,161)" transform="translate(730.677 81.822)"/></svg>
