<svg display="block" role="presentation" viewBox="0 0 1162 211" xmlns="http://www.w3.org/2000/svg"><path d="M 0 113.469 C 0 133.228 14.616 149.553 33.537 152.015 C 35.175 152.242 36.846 152.339 38.548 152.339 L 54.032 152.339 C 75.329 152.339 92.58 134.944 92.58 113.469 L 92.58 90.017 L 59.075 90.017 L 59.075 123.186 C 59.075 124.968 57.629 126.425 55.863 126.425 L 36.749 126.425 C 34.982 126.425 33.537 124.968 33.537 123.186 L 33.537 29.153 C 33.537 27.371 34.982 25.913 36.749 25.913 L 55.863 25.913 C 57.629 25.913 59.075 27.371 59.075 29.153 L 59.075 62.322 L 92.58 62.322 L 92.58 38.87 C 92.58 17.394 75.329 0 54.032 0 L 38.548 0 C 36.846 0 35.175 0.097 33.537 0.324 C 14.616 2.786 0 19.111 0 38.87 Z" fill="rgb(135,150,161)" transform="translate(338.934 55.908)"/><path d="M 0 201.348 L 33.537 201.348 L 33.537 81.53 C 33.537 79.749 34.982 78.291 36.749 78.291 L 55.862 78.291 C 57.629 78.291 59.075 79.749 59.075 81.53 L 59.075 201.348 L 92.579 201.348 L 92.579 91.15 C 92.579 69.675 75.329 52.28 54.031 52.28 L 33.537 52.28 L 33.537 0 L 0 0 L 0 201.38 Z" fill="rgb(135,150,161)" transform="translate(443.496 5.15)"/><path d="M 52.265 143.366 L 52.265 60.702 L 71.025 60.702 L 71.025 34.821 L 52.265 34.821 L 52.265 0 L 18.728 0 L 18.728 34.821 L 0 34.821 L 0 60.702 L 18.728 60.702 L 18.728 151.269 C 18.728 167.368 31.674 180.422 47.639 180.422 L 71.025 180.422 L 71.025 146.605 L 55.477 146.605 C 53.71 146.605 52.265 145.147 52.265 143.366 Z" fill="rgb(135,150,161)" transform="translate(261.356 24.456)"/><path d="M 81.786 63.941 L 81.786 151.269 C 81.786 167.368 94.732 180.422 110.697 180.422 L 134.083 180.422 L 134.083 146.605 L 118.533 146.605 C 116.768 146.605 115.323 145.147 115.323 143.366 L 115.323 64.136 C 115.323 62.354 116.768 60.897 118.533 60.897 L 134.083 60.897 L 134.083 34.821 L 115.323 34.821 L 115.323 0 L 81.786 0 L 81.786 34.821 L 38.548 34.821 C 17.25 34.821 0 52.216 0 73.691 L 0 180.422 L 33.536 180.422 L 33.536 63.941 C 33.536 62.16 34.982 60.702 36.749 60.702 L 78.573 60.702 C 80.34 60.702 81.786 62.16 81.786 63.941 Z" fill="rgb(135,150,161)" transform="translate(882.077 24.456)"/><path d="M 92.58 46.674 C 92.58 33.782 87.38 22.121 79.03 13.667 C 69.9 4.468 56.92 -0.91 42.82 0.127 C 18.44 1.909 0 23.287 0 47.937 L 0 98.274 C 0 129.467 19.12 151.072 43.98 152.303 C 70.58 153.599 92.58 132.253 92.58 105.692 L 92.58 100.703 L 59.08 100.703 L 59.08 123.216 C 59.08 124.997 57.63 126.455 55.86 126.455 L 36.75 126.455 C 34.98 126.455 33.54 124.997 33.54 123.216 L 33.54 93.285 C 33.54 91.504 34.98 90.046 36.75 90.046 L 92.58 90.046 Z M 36.75 33.814 L 55.86 33.814 C 57.63 33.814 59.08 35.272 59.08 37.054 L 59.08 56.326 C 59.08 58.108 57.63 59.566 55.86 59.566 L 36.75 59.566 C 34.98 59.566 33.54 58.108 33.54 56.326 L 33.54 37.054 C 33.54 35.272 34.98 33.814 36.75 33.814 Z" fill="rgb(135,150,161)" transform="translate(1025.12 55.911)"/><path d="M 33.54 0 L 0 0 L 0 197.882 L 33.54 197.882 Z" fill="rgb(135,150,161)" transform="translate(1128.46 6.964)"/><path d="M 151.687 29.153 L 151.687 197.914 L 118.15 197.914 L 118.15 36.441 C 118.15 34.659 116.704 33.202 114.938 33.202 L 95.824 33.202 C 94.057 33.202 92.612 34.659 92.612 36.441 L 92.612 141.682 L 59.075 141.682 L 59.075 36.765 C 59.075 34.983 57.629 33.525 55.863 33.525 L 36.749 33.525 C 34.982 33.525 33.537 34.983 33.537 36.765 L 33.537 197.914 L 0 197.914 L 0 29.153 C 0 17.88 6.328 8.13 15.612 3.272 C 19.595 1.166 24.125 0 28.911 0 L 53.646 0 C 62.576 0 70.543 4.081 75.843 10.495 C 81.144 4.081 89.11 0 98.041 0 L 122.776 0 C 127.562 0 132.091 1.166 136.075 3.272 C 145.358 8.13 151.687 17.88 151.687 29.153 Z" fill="rgb(135,150,161)" transform="translate(0 6.964)"/><path d="M 54.031 0 L 38.548 0 C 17.25 0 0 17.394 0 38.87 L 0 51.762 L 33.504 51.762 L 33.504 29.25 C 33.504 27.468 34.95 26.011 36.717 26.011 L 55.83 26.011 C 57.597 26.011 59.042 27.468 59.042 29.25 L 59.042 59.179 C 59.042 60.961 57.597 62.419 55.83 62.419 L 38.548 62.419 C 17.25 62.419 0 79.813 0 101.289 L 0 123.283 C 0 139.381 12.945 152.435 28.911 152.435 L 42.981 152.435 C 51.847 152.435 59.042 145.18 59.042 136.239 L 59.042 149.067 L 92.579 149.067 L 92.579 38.87 C 92.579 17.394 75.329 0 54.031 0 Z M 55.83 118.651 L 36.717 118.651 C 34.95 118.651 33.504 117.193 33.504 115.412 L 33.504 96.138 C 33.504 94.357 34.95 92.899 36.717 92.899 L 55.83 92.899 C 57.597 92.899 59.042 94.357 59.042 96.138 L 59.042 115.412 C 59.042 117.193 57.597 118.651 55.83 118.651 Z" fill="rgb(135,150,161)" transform="translate(165.436 55.779)"/><path d="M 54.032 0 L 38.548 0 C 17.25 0 0 17.394 0 38.87 L 0 51.762 L 33.505 51.762 L 33.505 29.25 C 33.505 27.468 34.95 26.011 36.717 26.011 L 55.831 26.011 C 57.597 26.011 59.043 27.468 59.043 29.25 L 59.043 59.179 C 59.043 60.961 57.597 62.419 55.831 62.419 L 38.548 62.419 C 17.25 62.419 0 79.813 0 101.289 L 0 123.283 C 0 139.381 12.946 152.435 28.911 152.435 L 42.981 152.435 C 51.847 152.435 59.043 145.18 59.043 136.239 L 59.043 149.067 L 92.58 149.067 L 92.58 38.87 C 92.58 17.394 75.33 0 54.032 0 Z M 55.831 118.651 L 36.717 118.651 C 34.95 118.651 33.505 117.193 33.505 115.412 L 33.505 96.138 C 33.505 94.357 34.95 92.899 36.717 92.899 L 55.831 92.899 C 57.597 92.899 59.043 94.357 59.043 96.138 L 59.043 115.412 C 59.043 117.193 57.597 118.651 55.831 118.651 Z" fill="rgb(135,150,161)" transform="translate(547.736 55.779)"/><path d="M 54.031 0 L 38.548 0 C 17.25 0 0 17.394 0 38.87 L 0 51.762 L 33.504 51.762 L 33.504 29.25 C 33.504 27.468 34.95 26.011 36.717 26.011 L 55.83 26.011 C 57.597 26.011 59.042 27.468 59.042 29.25 L 59.042 59.179 C 59.042 60.961 57.597 62.419 55.83 62.419 L 38.548 62.419 C 17.25 62.419 0 79.813 0 101.289 L 0 123.283 C 0 139.381 12.945 152.435 28.911 152.435 L 42.981 152.435 C 51.847 152.435 59.042 145.18 59.042 136.239 L 59.042 149.067 L 92.579 149.067 L 92.579 38.87 C 92.579 17.394 75.329 0 54.031 0 Z M 55.83 118.651 L 36.717 118.651 C 34.95 118.651 33.504 117.193 33.504 115.412 L 33.504 96.138 C 33.504 94.357 34.95 92.899 36.717 92.899 L 55.83 92.899 C 57.597 92.899 59.042 94.357 59.042 96.138 L 59.042 115.412 C 59.042 117.193 57.597 118.651 55.83 118.651 Z" fill="rgb(135,150,161)" transform="translate(775.877 55.779)"/><path d="M 0 172.13 C 0 191.889 13.749 208.214 32.67 210.676 C 34.308 210.903 35.978 211 37.681 211 L 71.186 211 C 92.483 211 109.734 193.606 109.734 172.13 L 109.734 122.732 L 76.229 122.732 L 76.229 181.847 C 76.229 183.629 74.783 185.087 73.017 185.087 L 35.882 185.087 C 34.115 185.087 32.67 183.629 32.67 181.847 L 32.67 29.153 C 32.67 27.371 34.115 25.913 35.882 25.913 L 73.017 25.913 C 74.783 25.913 76.229 27.371 76.229 29.153 L 76.229 89.693 L 109.734 89.693 L 109.734 38.87 C 109.734 17.394 92.483 0 71.186 0 L 37.681 0 C 35.978 0 34.308 0.097 32.67 0.324 C 13.749 2.786 0 19.111 0 38.87 Z" fill="rgb(135,150,161)" transform="translate(655.221 0)"/></svg>
